/* XPM */
static char *ec96858f754f40a7e6cef6a5f3cd071fxB2ZbJkUfIXlImDg[] = {
/* columns rows colors chars-per-pixel */
"64 64 13 1 ",
"  c #4E9C2A",
". c black",
"X c #984324",
"o c #5E2C1A",
"O c #86C0E3",
"+ c #0F5784",
"@ c #1F87C7",
"# c white",
"$ c #72DF9F",
"% c green",
"& c #A5FFA5",
"* c #008F00",
"= c #3DC28F",
/* pixels */
"                                                                ",
"                                                                ",
"                                                                ",
"                                                                ",
"                                                                ",
"                                                                ",
"                                                                ",
"                                                                ",
"                                                                ",
"                                                                ",
"                                                                ",
"                                                                ",
"                                                                ",
"                                                                ",
"                                                                ",
"                                                                ",
"                                                                ",
"                                                                ",
"                                                                ",
"                                                                ",
"                                                                ",
"                                                                ",
"                                                                ",
"                             ....                               ",
"                             ....                               ",
"                           ..XXoo..                             ",
"                           ..XXoo..                             ",
"                           ..oooo..                             ",
"                           ..oooo..                             ",
"                             ....                               ",
"                             ....                               ",
"                           ..OOOO..                             ",
"                           ..OOOO..                             ",
"                         ..OO++++@@..                           ",
"                         ..OO++++@@..                           ",
"                       ..OO++##++++@@..                         ",
"                       ..OO++##++++@@..                         ",
"                     ..OO++##++++++++@@..                       ",
"                     ..OO++##++++++++@@..                       ",
"                     ..$$%%&&%%%%%%**==..                       ",
"                     ..$$%%&&%%%%%%**==..                       ",
"                     ..$$%%%%%%%%%%**==..                       ",
"                     ..$$%%%%%%%%%%**==..                       ",
"                     ..$$%%%%%%%%%%**==..                       ",
"                     ..$$%%%%%%%%%%**==..                       ",
"                     ..$$%%%%%%%%****==..                       ",
"                     ..$$%%%%%%%%****==..                       ",
"                     ..$$************==..                       ",
"                     ..$$************==..                       ",
"                       ..$$==========..                         ",
"                       ..$$==========..                         ",
"                         ............                           ",
"                         ............                           ",
"                                                                ",
"                                                                ",
"                                                                ",
"                                                                ",
"                                                                ",
"                                                                ",
"                                                                ",
"                                                                ",
"                                                                ",
"                                                                ",
"                                                                "
};
