/* XPM */
static char *_74606bc70fa488ef35dd636c3e629f6wctVF6YcUDt5IVt4[] = {
/* columns rows colors chars-per-pixel */
"64 64 209 2 ",
"   c #162162",
".  c #182468",
"X  c #1A2772",
"o  c #1A2873",
"O  c #17267C",
"+  c #1C2D7F",
"@  c #172573",
"#  c #4E9C2A",
"$  c #4F9F38",
"%  c #519E31",
"&  c #529D3A",
"*  c #53A23B",
"=  c #4D9B4B",
"-  c #4E9B47",
";  c #519D4B",
":  c #579E42",
">  c #539C5E",
",  c #5A9F5E",
"<  c #4C975B",
"1  c #4FA44F",
"2  c #56A44A",
"3  c #4EA851",
"4  c #54A858",
"5  c #4D9B6E",
"6  c #539C6B",
"7  c #539C65",
"8  c #4B9B76",
"9  c #57A965",
"0  c #4BAE77",
"q  c #58A775",
"w  c #53B07B",
"e  c #4EB37C",
"r  c #62A57D",
"t  c #1D2E84",
"y  c #1D2F8D",
"u  c #1F328B",
"i  c #1E3093",
"p  c #1B3C9B",
"a  c #20318E",
"s  c #223495",
"d  c #23369C",
"f  c #2337A1",
"g  c #2439A5",
"h  c #263BAA",
"j  c #283DAE",
"k  c #2B3FB3",
"l  c #243CB4",
"z  c #1D47A6",
"x  c #2941AB",
"c  c #2B41B5",
"v  c #2C42BC",
"b  c #2D45C4",
"n  c #2E47C9",
"m  c #2E49CB",
"M  c #354DCF",
"N  c #384FCF",
"B  c #2859CB",
"V  c #2D4ED0",
"C  c #344DD4",
"Z  c #334FDF",
"A  c #384FD0",
"S  c #2E54DD",
"D  c #2C5BDC",
"F  c #275ED8",
"G  c #3151DE",
"H  c #3058DF",
"J  c #3550D7",
"K  c #1E77D6",
"L  c #1967D2",
"P  c #2664D9",
"I  c #2B62DD",
"U  c #256CDB",
"Y  c #2A6BDF",
"T  c #2577DE",
"R  c #237CDE",
"E  c #334FE0",
"W  c #3253E0",
"Q  c #2C66E1",
"!  c #2B6BE1",
"~  c #3169E3",
"^  c #2777E0",
"/  c #2A75E1",
"(  c #2A7AE3",
")  c #277EE1",
"_  c #337AEA",
"`  c #3E9693",
"'  c #3B998F",
"]  c #3B93AE",
"[  c #3591B2",
"{  c #3B95B5",
"}  c #3FBBA4",
"|  c #4E998D",
" . c #459A83",
".. c #479891",
"X. c #499997",
"o. c #529C92",
"O. c #4BB38B",
"+. c #54B284",
"@. c #59B282",
"#. c #50A19A",
"$. c #4EB79C",
"%. c #4AB596",
"&. c #54B798",
"*. c #5EA18B",
"=. c #67A492",
"-. c #4699A8",
";. c #4396B3",
":. c #4899BB",
">. c #5399AB",
",. c #50AFB3",
"<. c #5EC1A4",
"1. c #51C1BB",
"2. c #47CBB1",
"3. c #1E8DDF",
"4. c #1993DE",
"5. c #1595D9",
"6. c #3A8FCE",
"7. c #2F91CD",
"8. c #3292CD",
"9. c #2D8ED6",
"0. c #2484DE",
"q. c #238CDC",
"w. c #2A8EDA",
"e. c #2786D9",
"r. c #318DD7",
"t. c #2C91D6",
"y. c #2691DD",
"u. c #2B94DA",
"i. c #3893D8",
"p. c #19AED6",
"a. c #20AFCF",
"s. c #20A0DC",
"d. c #1E8DE0",
"f. c #1D92E1",
"g. c #1D9BE4",
"h. c #2583E2",
"j. c #218AE1",
"k. c #2C89E5",
"l. c #3180EB",
"z. c #2798E8",
"x. c #2D96F0",
"c. c #309BF2",
"v. c #1FAEEC",
"b. c #1CA5E5",
"n. c #1EB5EC",
"m. c #1FBBF2",
"M. c #24ACE4",
"N. c #21A4EA",
"B. c #23ADEB",
"V. c #2BA5E8",
"C. c #35ADE5",
"Z. c #27B7EA",
"A. c #36B6EF",
"S. c #2CA9F2",
"D. c #30A0F1",
"F. c #21B3F1",
"G. c #24BBF4",
"H. c #2FB8F9",
"J. c #31BCFC",
"K. c #4798D3",
"L. c #3AC4CC",
"P. c #34C5D1",
"I. c #37C9D7",
"U. c #39C7D9",
"Y. c #1CC4E6",
"T. c #1ECAE9",
"R. c #1ED6E7",
"E. c #24C8E9",
"W. c #3ECAEB",
"Q. c #24D5EA",
"!. c #24C4F9",
"~. c #2AC1FA",
"^. c #26CDFD",
"/. c #2ACCFE",
"(. c #24C4F4",
"). c #32CEF4",
"_. c #3FCEF2",
"`. c #32CCFB",
"'. c #23D3F4",
"]. c #23DBF6",
"[. c #24D2FE",
"{. c #29D2FB",
"}. c #23DBF9",
"|. c #29D9F3",
" X c #39D1F7",
".X c #1EE1ED",
"XX c #1EF3EE",
"oX c #1EFBEC",
"OX c #1FE6F3",
"+X c #1FEDF1",
"@X c #1FF2F0",
"#X c #26E7ED",
"$X c #22F5EF",
"%X c #22FAED",
"&X c #22E4F6",
"*X c #22ECF3",
"=X c #2BECF2",
"-X c #26E4F8",
";X c #23F3F1",
":X c #2BF1F3",
">X c #31ECF8",
",X c #46C3C6",
"<X c #4BC2C4",
"1X c #43C3CA",
"2X c #4FC4C8",
"3X c #43CAD4",
"4X c #51C7CE",
"5X c #42CCEE",
"6X c #50CFEB",
/* pixels */
"# # # # # # # # # # # # # # # # # # # # # # # # # # # # # # # # # # # # # # # # # # # # # # # # # # # # # # # # # # # # # # # # ",
"# # # # # # # # # # # # # # # # # # # # # # # # # # # # # # # # # # # # # # # # # # # # # # # # # # # # # # # # # # # # # # # # ",
"# # # # # # # # # # # # # # # # # # # # # # # # # # # # # # # # # # # # # # # # # # # # # # # # # # # # # # # # # # # # # # # # ",
"# # # # # # # # # # # # # # # # # # # # # # # # # # # # # # # # # # # # # # # # # # # # # # # # # # # # # # # # # # # # # # # # ",
"# # # # # # # # # # # # # # # # # # # 9 ,XP.P.P.P.P.P.P.P.P.<.# # # # # # # # # # # # # # # # # # # # # # # # # # # # # # # # # ",
"# # # # # # # # # # # # # # # # # # 6X{.[.[.[.^.[.[.[.[.[.[.[.{.<.# # # # # # # # # # # # # # # # # # # # # # # # # # # # # # # ",
"# # # # # # # # # # # # # # * 3 4X{.{.E.I.P.U.).!.!.!.^.[.[.[.[.{.).N.q.w.y.q.:.= & # # # # # # # # # # # # # # # # # # # # # # ",
"# # # # # # # # # # # # # # @.U.).{.I.O.- - < ,.y.3.g.G.!.[.[.[.[.^.g.3.d.3.d.q.w.-.= & # # # # # # # # # # # # # # # # # # # # ",
"# # # # # # % 4 w w 9 # # # # # +.O.< X.u.q.q.d.3.3.3.3.g.F.m.m.'.}.n.N.d.d.d.d.d.3.q.X.5 & # # # # # # # # # # # # # # # # # # ",
"# # # # # # # <X).} +.# # # # # # # K.4.d.d.3.3.3.3.3.3.0.T ^ T Z.*X&X}.v.v.v.g.d.d.d.q.i.; # # # # # # # # # # # # # # # # # # ",
"# # # # # # # +.%.# # # # # # # > 8 i.d.3.3.d.3.j.) / / ! G E G _ c.|.*XOXOX[.m.d.d.d.d.w. .6 # # # # # # # # # # # # # # # # # ",
"# # # # # # # # # # # # # # 7 ` 8.d.3.3.3.3.3.3.j.P E Z W G E Z S S _ z.#XoX+X'.F.b.3.3.f.d.i.# # # # # # # # # # # # # # # # # ",
"# # # # # # # # # # # # # # | q.3.3.3.3.3.R U I Q S Z Z E E C M C E E H k.M.%X;X[.F.3.d.4.j.w.` 8 # # # # # # # # # # # # # # # ",
"# # # # # # # # # # # # # # | q.3.f.3.R I W W Z Z E Z m b b b v b n C E S ! {.&X+XY.j.! I j.3.q.w.{ 8 # # # # # # # # # # # # # ",
"# # # # # # # # # # # # > ] 7.3.d.0.d./ D Z Z M b b b v v v v v k b V E E S ! M.%X.XG./ S h.j.3.3.q.X.% # # $.4X# # # # # # # # ",
"# # # # # # # # # # # # 6 q.3.3.d.h.P B h g g k v v v v v v v v b v k n Z Z G k.%XoX;Xq.S S D j.d.q...# # # P.5X# # # # # # # # ",
"# # # # # # # # # # ; 6.w.j.3.j.U L H.D.F b d d d c v v v v v v v v v v v b S k.:X%XoX].J.Q D j.3.q...# # # L._.# # # # # # # # ",
"# # # # # # # # # # ; r.j.4.3.5.Q.#X#XZ.B v d d d d d d g c c v v v v v v b Z E P M.oXOX^.( Q h.j.0...# # # L.5X# # # # # # # # ",
"# # # # # # # # # ; 6 9.3.3.4.p.R.=XK b g d d d d d d d d d h c k b v v v b Z C S V.oXOX[.[.J.D I q.-.2 & # L._.# # # # # # # # ",
"# # # # # # # # # 6.3.d.3.4.E.%XR.A.P M g d d d d d d d d d d d j v v v v v b n J k.Z.E.E.[.J.D I 0.3.q.5 # L.`.e 9 # # # # # # ",
"# # # # # # # # # 6.f.b.n.p.R.>Xq.G m k f d d d d d d d d d d d j v v v b k b n Z J S S D x.c.G I j.3.q.X.8 U.[.{.,X# # # # # # ",
"# # # # # # # q #.w.b.OXXX%XQ.V.Y C l d d d d d d d d d d d d d g j c v b k k m Z Z E E Z Z E E I j.3.3.3.f.!.[.[.1X# # # # # # ",
"# # # # # # # <  .C.Y.%XXX-Xz.S G C p a u u i u a s d d d d d d d d k v v v v b Z E Z Z Z E Z E H ! R 3.3.3.!.[.[.1X# # # # # # ",
"# # # # # # # # # 5X}.-X~.k.~ G G C i + t + + t + a a s d d d d d d k v v v v n Z Z Z E Z E Z Z E G ! 3.3.4.!.[.[.1X# # # # # # ",
"# # # # # # # &.1X/.[.{.D.S W E Z C s t + + + + + + t s d d d d d f k v v v v n Z Z Z Z Z Z E Z Z W ! 3.3.3.!.[.[.1X# # # # # # ",
"# # # # # # # <X[.[.[.{.c.S E E Z A i + + + + + + + t s d d d d d d k v v v k n Z Z Z Z Z Z Z Z Z G Y 3.3.3.!.[./.,X# # # # # # ",
"# # # # # # # <X[.[.[.^.D.S Z Z Z N O   . X + + + + t s d d d d d d k v k b b n Z Z Z Z Z E Z Z E G ! 3.3.3.!. X2 * # # # # # # ",
"# # # # # # # <X[.[.[.[.D.S E E Z N O         X + + + t a d d d d f k v b k b n Z Z Z Z Z Z Z E Z W ! d.d.4.!.{. X1.# # # # # # ",
"# # # # # # # <X[.[.[./.x.S E Z E N O         X + + + + t d d d d d k b k b b n Z Z Z Z Z Z Z E Z W ! 3.f.g.!.[.5X1.# # # # # # ",
"# # # # # # # <X[.[.~.f./ Z E E Z C O         X + + + + a d d d d f k k b k k n Z Z Z Z E E Z Z E G ! 3.G.}.[. X# # # # # # # # ",
"# # # # # # # <X[.[.!.f./ G Z J b c @         X + + + + t s d d d d k b b k b n Z Z Z E Z Z E Z E S ! 3.R.oX&X5X# # # # # # # # ",
"# # # # # # # 2X[.[.G.f./ G Z C u             X + + + t t d d d d d k k b b k n Z E Z Z Z E Z Z E E / b.R.oX}._.# # # # # # # # ",
"# # # # # 4 O.W.[.[.~.f./ G G A y             X + + + + t d d d d d k v v v v n Z Z Z Z Z Z Z Z E Z z.&XXX%X2.&.# # # # # # # # ",
"# # # # # $.{.[.[.[.!.j./ G Z C u             X + + + t t d d d d d k b v v b n Z Z Z Z Z Z Z Z Y V.E.%X$X=X1 # # # # # # # # # ",
"# # # # # $.[.[.{.n.N.j./ G Z C y         . o + + + + + y d d d d d k k k b k n Z Z Z Z E E Z G e.%XoXoXT.V.; # # # # # # # # # ",
"# # # # # $.[.[./.f.q.j.T G Z Z b c o . o o + + + + + + u s d d j k k b b k b n Z Z E Z Z Z G S e.%XXX&Xv.w.= # # # # # # # # # ",
"# # # # # $.[.[./.4.3.d./ S Z E Z N y o + + + + + + t a s d d d k b v v v v v n Z Z Z Z Z E D S.G.%XR.b.f.j.{ X.# # # # # # # # ",
"# # # # # $.{.[./.f.d.d./ S Z Z Z C i + + + + + + + t s d d d d j k v v v v v n Z E Z Z E S U *X+X].n.3.d.w.6 2 # # # # # # # # ",
"# # # # # $.[.[.`.u.w.j.0.h.Y G G C i t t t t + t a d d d d d f j k v v k b Z Z Z Z Z G D S.'.XX@X[.F.3.d.w.= # # # # # # # # # ",
"# # # # # $.{.[._.* = u.j.k.! G E J g d d d s d d d d d d d h c k b v v v b Z Z W Z Z G D |.oXoX*X^.n.d.d.w.= # # # # # # # # # ",
"# # # # # $.{.[.5X# = r./ S G E Z Z k x z z p s d d d d d d h v b v v v b n Z Z Z Z Z P K #XXX[.m.4.3.3.i.K.2 # # # # # # # # # ",
"# # # # # w 1X).W.# - r.) D W E Z Z G ( /.t.p d d d d d d f j v v v v b C Z Z Z Z Q R Q.%X@X*X(.F.3.3.q.5 # # # # # # # # # # # ",
"# # # # # # # <XW.# ; 9.q.j.T I G Z J 0.=Xa.p d d d f h j v v v v v b n Z Z W D e.Z.%X%X+X}.^.4.3.3.7.-.> # # # # # # # # # # # ",
"# # # # # # # @.&.# ; 9.d.d.d.h.I D l.B.=Xa.z h h j j k k b v v v v C E E E G k.-X*X&XZ.x.B.B.3.3.q...# # # # # # # # # # # # # ",
"# # # # # # # # # # & | ] 0.3.j.^ T ~.}.$XY.e.v v v v k b k b k n n C E E E Z Q x.x.x.Q S h.3.3.7...7 # # # 9 w # # # # # # # # ",
"# # # # # # # # # # # # 9 q.3.d.d.j.h.B.$X%X:Xs.V C V b b m C C E E E E E E Z Z W S G Q ^ d.d.d.;.# # # # # 9 w # # # # # # # # ",
"# # # # # # # # # # # # 6 e.j.f.d.h.F ) {.+X%Xs.S E E C C E E Z E E Z Z E Z Z Z S Q T 0.3.3.3.w.;.# # # # # # # # # # # # # # # ",
"# # # # # # # # # # # # : 6 -.3.d.j.K z./.&X%XQ.N.! E E E E Z Z E E E Z Z E Z S ^ 0.3.3.3.3.r.6 4 # # # # # # # # # # # # # # # ",
"# # # # # # # # # # # # # # | q.3.3.3.3.g.Y.%XoX;X'.S.! E E E E G S S G G D ) j.3.3.3.3.3.q.i.# # # # # # # # # # # # # # # # # ",
"# # # # # # # # # # # # # # & ; :.3.3.3.3.N.'.*XoXXX|.K S E S S ! R ) h.R 0.d.3.3.3.3.3.q.9.K.# # # # # # # # # # # # # # # # # ",
"# # # # # # # # # # # # # # # # >.9.9.q.q.3.5.F.'.;X%X].H.F ! h.d.d.3.3.3.3.3.3.3.3.0.y.i.; # # # # # # # # # # # # # # # # # # ",
"# # # # # # # # # # # # # # # # # # # 9 ;.8.3.3.5.'.XX;X*X/.G.b.f.3.d.d.3.3.q.t.[ [ [ 9 # # # # # # # # # # # # # # # # # # # # ",
"# # # # # # # # # # # # # # # # # # # # # r [ t.4.G.[.[.[.[.[.^.F.g.g.g.3.y.[ #.# # # # # # # # # # # # # # # # # # # # # # # # ",
"# # # # # # # # # # # # # # # # # # # # # # # =.] A.!.^.[.[.[.[.[.[.[.^.N.C.4 1 1 1 1 1 1 & # # # # # # # # # # # # # # # # # # ",
"# # # # # # # # # # # # # # # # # # # # # # # # # *.' %.} '.[.[.[.[.[.[.[.[.[.[.{.[.[.^._.3 # # # # # # # # # # # # # # # # # # ",
"# # # # # # # # # # # # # # # # # # # # # # # # # # # # % %.3X{.[.[.[.[.[.[.[.[.[.[.[.,X$.2 # # # # # # # # # # # # # # # # # # ",
"# # # # # # # # # # # # # # # # # # # # # # # # # # # # # # $ 0 0 0 0 0 0 0 0 0 0 0 0 & # # # # # # # # # # # # # # # # # # # # ",
"# # # # # # # # # # # # # # # # # # # # # # # # # # # # # # # # # # # # # # # # # # # # # # # # # # # # # # # # # # # # # # # # ",
"# # # # # # # # # # # # # # # # # # # # # # # # # # # # # # # # # # # # # # # # # # # # # # # # # # # # # # # # # # # # # # # # ",
"# # # # # # # # # # # # # # # # # # # # # # # # # # # # # # # # # # # # # # # # # # # # # # # # # # # # # # # # # # # # # # # # ",
"# # # # # # # # # # # # # # # # # # # # # # # # # # # # # # # # # # # # # # # # # # # # # # # # # # # # # # # # # # # # # # # # ",
"# # # # # # # # # # # # # # # # # # # # # # # # # # # # # # # # # # # # # # # # # # # # # # # # # # # # # # # # # # # # # # # # ",
"# # # # # # # # # # # # # # # # # # # # # # # # # # # # # # # # # # # # # # # # # # # # # # # # # # # # # # # # # # # # # # # # ",
"# # # # # # # # # # # # # # # # # # # # # # # # # # # # # # # # # # # # # # # # # # # # # # # # # # # # # # # # # # # # # # # # "
};
