/* XPM */
static char *_4c3bfc52cc04e1be4b5c8c07f54db37YD51S6UQa0wwvrga[] = {
/* columns rows colors chars-per-pixel */
"64 64 9 1 ",
"  c #4E9C2A",
". c black",
"X c #9A2F27",
"o c #711E1D",
"O c #5379D2",
"+ c #2B1834",
"@ c #40243B",
"# c #46B7FD",
"$ c #6A3133",
/* pixels */
"                                                                ",
"                                                                ",
"                                                                ",
"                                                                ",
"                                                                ",
"                                                                ",
"                                                                ",
"                                                                ",
"                    ........................                    ",
"                    ........................                    ",
"                    ........................                    ",
"                    ........................                    ",
"                ....XXXXXXXXXXXXXXXXXXXXXXXX....                ",
"                ....XXXXXXXXXXXXXXXXXXXXXXXX....                ",
"                ....XXXXXXXXXXXXXXXXXXXXXXXX....                ",
"                ....XXXXXXXXXXXXXXXXXXXXXXXX....                ",
"            ....ooooXXXXXXXXXXXXXXXXXXXXOOOOOOOO....            ",
"            ....ooooXXXXXXXXXXXXXXXXXXXXOOOOOOOO....            ",
"            ....ooooXXXXXXXXXXXXXXXXXXXXOOOOOOOO....            ",
"            ....ooooXXXXXXXXXXXXXXXXXXXXOOOOOOOO....            ",
"            ............ooooXXXXXXXXOOOO++++++++....            ",
"            ............ooooXXXXXXXXOOOO++++++++....            ",
"            ............ooooXXXXXXXXOOOO++++++++....            ",
"            ............ooooXXXXXXXXOOOO++++++++....            ",
"                ....ooooXXXXXXXXOOOO++++@@@@@@@@....            ",
"                ....ooooXXXXXXXXOOOO++++@@@@@@@@....            ",
"                ....ooooXXXXXXXXOOOO++++@@@@@@@@....            ",
"                ....ooooXXXXXXXXOOOO++++@@@@@@@@....            ",
"                ....XXXXXXXXXXXXOOOO....####@@@@....            ",
"                ....XXXXXXXXXXXXOOOO....####@@@@....            ",
"                ....XXXXXXXXXXXXOOOO....####@@@@....            ",
"                ....XXXXXXXXXXXXOOOO....####@@@@....            ",
"                ....XXXXXXXXXXXXOOOO....####@@@@....            ",
"                ....XXXXXXXXXXXXOOOO....####@@@@....            ",
"                ....XXXXXXXXXXXXOOOO....####@@@@....            ",
"                ....XXXXXXXXXXXXOOOO....####@@@@....            ",
"                ....ooooXXXXXXXXOOOO++++@@@@@@@@....            ",
"                ....ooooXXXXXXXXOOOO++++@@@@@@@@....            ",
"                ....ooooXXXXXXXXOOOO++++@@@@@@@@....            ",
"                ....ooooXXXXXXXXOOOO++++@@@@@@@@....            ",
"                    ........ooooXXXXoooooooo....                ",
"                    ........ooooXXXXoooooooo....                ",
"                    ........ooooXXXXoooooooo....                ",
"                    ........ooooXXXXoooooooo....                ",
"                ....ooooXXXXXXXXOOOO@@@@....                    ",
"                ....ooooXXXXXXXXOOOO@@@@....                    ",
"                ....ooooXXXXXXXXOOOO@@@@....                    ",
"                ....ooooXXXXXXXXOOOO@@@@....                    ",
"            ....ooooXXXXXXXXOOOO@@@@@@@@....                    ",
"            ....ooooXXXXXXXXOOOO@@@@@@@@....                    ",
"            ....ooooXXXXXXXXOOOO@@@@@@@@....                    ",
"            ....ooooXXXXXXXXOOOO@@@@@@@@....                    ",
"            ....ooooXXXXXXXXOOOO@@@@@@@@....                    ",
"            ....ooooXXXXXXXXOOOO@@@@@@@@....                    ",
"            ....ooooXXXXXXXXOOOO@@@@@@@@....                    ",
"            ....ooooXXXXXXXXOOOO@@@@@@@@....                    ",
"                ............@@@@@@@@....                        ",
"                ............@@@@@@@@....                        ",
"                ............@@@@@@@@....                        ",
"                ............@@@@@@@@....                        ",
"                        ....$$$$....                            ",
"                        ....$$$$....                            ",
"                        ....$$$$....                            ",
"                        ....$$$$....                            "
};
