/* XPM */
static char *bdd4bce3e6804be0a3b2c38794b67840Z7Tc6sNUjKWJlilD[] = {
/* columns rows colors chars-per-pixel */
"64 64 9 1 ",
"  c #4E9C2A",
". c black",
"X c #972F26",
"o c #5978CE",
"O c #70211D",
"+ c #241B2B",
"@ c #3B243A",
"# c #46B6FC",
"$ c #6C2F2E",
/* pixels */
"                                                                ",
"                                                                ",
"                                                                ",
"                                                                ",
"                                                                ",
"                                                                ",
"                                                                ",
"                                                                ",
"                    ........................                    ",
"                    ........................                    ",
"                    ........................                    ",
"                    ........................                    ",
"                ....XXXXXXXXXXXXXXXXXXXXXXXX....                ",
"                ....XXXXXXXXXXXXXXXXXXXXXXXX....                ",
"                ....XXXXXXXXXXXXXXXXXXXXXXXX....                ",
"                ....XXXXXXXXXXXXXXXXXXXXXXXX....                ",
"            ....ooooooooXXXXXXXXXXXXXXXXXXXXOOOO....            ",
"            ....ooooooooXXXXXXXXXXXXXXXXXXXXOOOO....            ",
"            ....ooooooooXXXXXXXXXXXXXXXXXXXXOOOO....            ",
"            ....ooooooooXXXXXXXXXXXXXXXXXXXXOOOO....            ",
"            ....++++++++ooooXXXXXXXXOOOO............            ",
"            ....++++++++ooooXXXXXXXXOOOO............            ",
"            ....++++++++ooooXXXXXXXXOOOO............            ",
"            ....++++++++ooooXXXXXXXXOOOO............            ",
"            ....@@@@@@@@++++ooooXXXXXXXXOOOO....                ",
"            ....@@@@@@@@++++ooooXXXXXXXXOOOO....                ",
"            ....@@@@@@@@++++ooooXXXXXXXXOOOO....                ",
"            ....@@@@@@@@++++ooooXXXXXXXXOOOO....                ",
"            ....@@@@####....ooooXXXXXXXXXXXX....                ",
"            ....@@@@####....ooooXXXXXXXXXXXX....                ",
"            ....@@@@####....ooooXXXXXXXXXXXX....                ",
"            ....@@@@####....ooooXXXXXXXXXXXX....                ",
"            ....@@@@####....ooooXXXXXXXXXXXX....                ",
"            ....@@@@####....ooooXXXXXXXXXXXX....                ",
"            ....@@@@####....ooooXXXXXXXXXXXX....                ",
"            ....@@@@####....ooooXXXXXXXXXXXX....                ",
"            ....@@@@@@@@++++ooooXXXXXXXXOOOO....                ",
"            ....@@@@@@@@++++ooooXXXXXXXXOOOO....                ",
"            ....@@@@@@@@++++ooooXXXXXXXXOOOO....                ",
"            ....@@@@@@@@++++ooooXXXXXXXXOOOO....                ",
"                ....OOOOOOOOXXXXOOOO........                    ",
"                ....OOOOOOOOXXXXOOOO........                    ",
"                ....OOOOOOOOXXXXOOOO........                    ",
"                ....OOOOOOOOXXXXOOOO........                    ",
"                    ....@@@@ooooXXXXXXXXOOOO....                ",
"                    ....@@@@ooooXXXXXXXXOOOO....                ",
"                    ....@@@@ooooXXXXXXXXOOOO....                ",
"                    ....@@@@ooooXXXXXXXXOOOO....                ",
"                    ....@@@@@@@@ooooXXXXXXXXOOOO....            ",
"                    ....@@@@@@@@ooooXXXXXXXXOOOO....            ",
"                    ....@@@@@@@@ooooXXXXXXXXOOOO....            ",
"                    ....@@@@@@@@ooooXXXXXXXXOOOO....            ",
"                    ....@@@@@@@@ooooXXXXXXXXOOOO....            ",
"                    ....@@@@@@@@ooooXXXXXXXXOOOO....            ",
"                    ....@@@@@@@@ooooXXXXXXXXOOOO....            ",
"                    ....@@@@@@@@ooooXXXXXXXXOOOO....            ",
"                        ....@@@@@@@@............                ",
"                        ....@@@@@@@@............                ",
"                        ....@@@@@@@@............                ",
"                        ....@@@@@@@@............                ",
"                            ....$$$$....                        ",
"                            ....$$$$....                        ",
"                            ....$$$$....                        ",
"                            ....$$$$....                        "
};
