/* XPM */
static char *_470333b64054e8bdde17e8a2d6342cbxlWN5AZ811RU16O4[] = {
/* columns rows colors chars-per-pixel */
"64 64 10 1 ",
"  c #4E9C2A",
". c black",
"X c #9B2F27",
"o c #5578D1",
"O c #731E21",
"+ c #261A27",
"@ c #40243A",
"# c #45B7FD",
"$ c #711F20",
"% c #683235",
/* pixels */
"                                                                ",
"                                                                ",
"                                                                ",
"                                                                ",
"                                                                ",
"                                                                ",
"                                                                ",
"                                                                ",
"                ........................                        ",
"                ........................                        ",
"                ........................                        ",
"                ........................                        ",
"            ....XXXXXXXXXXXXXXXXXXXXXXXX....                    ",
"            ....XXXXXXXXXXXXXXXXXXXXXXXX....                    ",
"            ....XXXXXXXXXXXXXXXXXXXXXXXX....                    ",
"            ....XXXXXXXXXXXXXXXXXXXXXXXX....                    ",
"        ....XXXXXXXXXXXXooooooooooooooooXXXX....                ",
"        ....XXXXXXXXXXXXooooooooooooooooXXXX....                ",
"        ....XXXXXXXXXXXXooooooooooooooooXXXX....                ",
"        ....XXXXXXXXXXXXooooooooooooooooXXXX....                ",
"        ........OOOOoooo++++++++++++++++ooooXXXX....            ",
"        ........OOOOoooo++++++++++++++++ooooXXXX....            ",
"        ........OOOOoooo++++++++++++++++ooooXXXX....            ",
"        ........OOOOoooo++++++++++++++++ooooXXXX....            ",
"        ....OOOOoooo++++@@@@@@@@@@@@@@@@++++ooooOOOO....        ",
"        ....OOOOoooo++++@@@@@@@@@@@@@@@@++++ooooOOOO....        ",
"        ....OOOOoooo++++@@@@@@@@@@@@@@@@++++ooooOOOO....        ",
"        ....OOOOoooo++++@@@@@@@@@@@@@@@@++++ooooOOOO....        ",
"        ....XXXXoooo....####@@@@@@@@####....ooooXXXX....        ",
"        ....XXXXoooo....####@@@@@@@@####....ooooXXXX....        ",
"        ....XXXXoooo....####@@@@@@@@####....ooooXXXX....        ",
"        ....XXXXoooo....####@@@@@@@@####....ooooXXXX....        ",
"        ....XXXXoooo....####@@@@@@@@####....ooooXXXX....        ",
"        ....XXXXoooo....####@@@@@@@@####....ooooXXXX....        ",
"        ....XXXXoooo....####@@@@@@@@####....ooooXXXX....        ",
"        ....XXXXoooo....####@@@@@@@@####....ooooXXXX....        ",
"        ....OOOOoooo++++@@@@@@@@@@@@@@@@++++ooooOOOO....        ",
"        ....OOOOoooo++++@@@@@@@@@@@@@@@@++++ooooOOOO....        ",
"        ....OOOOoooo++++@@@@@@@@@@@@@@@@++++ooooOOOO....        ",
"        ....OOOOoooo++++@@@@@@@@@@@@@@@@++++ooooOOOO....        ",
"            ........OOOO$$$$XXXXXXXX$$$$OOOO........            ",
"            ........OOOO$$$$XXXXXXXX$$$$OOOO........            ",
"            ........OOOO$$$$XXXXXXXX$$$$OOOO........            ",
"            ........OOOO$$$$XXXXXXXX$$$$OOOO........            ",
"        ....OOOOOOOOoooo++++@@@@@@@@++++ooooOOOOOOOO....        ",
"        ....OOOOOOOOoooo++++@@@@@@@@++++ooooOOOOOOOO....        ",
"        ....OOOOOOOOoooo++++@@@@@@@@++++ooooOOOOOOOO....        ",
"        ....OOOOOOOOoooo++++@@@@@@@@++++ooooOOOOOOOO....        ",
"    ....OOOOXXXXoooo++++@@@@@@@@@@@@@@@@++++ooooXXXXOOOO....    ",
"    ....OOOOXXXXoooo++++@@@@@@@@@@@@@@@@++++ooooXXXXOOOO....    ",
"    ....OOOOXXXXoooo++++@@@@@@@@@@@@@@@@++++ooooXXXXOOOO....    ",
"    ....OOOOXXXXoooo++++@@@@@@@@@@@@@@@@++++ooooXXXXOOOO....    ",
"    ....OOOOXXXXoooo@@@@@@@@@@@@@@@@@@@@@@@@ooooXXXXOOOO....    ",
"    ....OOOOXXXXoooo@@@@@@@@@@@@@@@@@@@@@@@@ooooXXXXOOOO....    ",
"    ....OOOOXXXXoooo@@@@@@@@@@@@@@@@@@@@@@@@ooooXXXXOOOO....    ",
"    ....OOOOXXXXoooo@@@@@@@@@@@@@@@@@@@@@@@@ooooXXXXOOOO....    ",
"    ................@@@@@@@@........@@@@@@@@................    ",
"    ................@@@@@@@@........@@@@@@@@................    ",
"    ................@@@@@@@@........@@@@@@@@................    ",
"    ................@@@@@@@@........@@@@@@@@................    ",
"                ....%%%%....        ....%%%%....                ",
"                ....%%%%....        ....%%%%....                ",
"                ....%%%%....        ....%%%%....                ",
"                ....%%%%....        ....%%%%....                "
};
