/* XPM */
static char *c6239560c5454f2dbd772961cb31d8886skKYq0hDqoDYT8U[] = {
/* columns rows colors chars-per-pixel */
"64 64 9 1 ",
"  c #604A32",
". c #725A3F",
"X c #866C4B",
"o c #4E9C2A",
"O c #B68042",
"+ c #A2835C",
"@ c #AB8A61",
"# c #CDA476",
"$ c #EAAA6A",
/* pixels */
"oooooooooooooooooooooooooooooooooooooooooooooooooooooooooooooooo",
"oooooooooooooooooooooooooooooooooooooooooooooooooooooooooooooooo",
"oooooooooooooooooooooooooooooooooooooooooooooooooooooooooooooooo",
"oooooooooooooooooooooooooooooooooooooooooooooooooooooooooooooooo",
"oooooooooooooooooooooooooooooooooooooooooooooooooooooooooooooooo",
"oooooooooooooooooooooooooooooooooooooooooooooooooooooooooooooooo",
"oooooooooooooooooooooooooooooooooooooooooooooooooooooooooooooooo",
"oooooooooooooooooooooooooooooooooooooooooooooooooooooooooooooooo",
"oooooooooooooooooooooooooooooooooooooooooooooooooooooooooooooooo",
"oooooooooooooooooooooooooooooooooooooooooooooooooooooooooooooooo",
"oooooooooooooooooooooooooooo        oooooooooooooooooooooooooooo",
"oooooooooooooooooooooooooooo        oooooooooooooooooooooooooooo",
"oooooooooooooooooooooo      ++######      oooooooooooooooooooooo",
"oooooooooooooooooooooo      ++######      oooooooooooooooooooooo",
"oooooooooooooooooo    $$$$OOOOOOOOOO######    oooooooooooooooooo",
"oooooooooooooooooo    $$$$OOOOOOOOOO######    oooooooooooooooooo",
"oooooooooooooooo  ++OO$$OOOOOO##++##OOOOOO##$$  oooooooooooooooo",
"oooooooooooooooo  ++OO$$OOOOOO##++##OOOOOO##$$  oooooooooooooooo",
"oooooooooooooooo    $$$$$$$$OOOO$$OOOO$$##$$    oooooooooooooooo",
"oooooooooooooooo    $$$$$$$$OOOO$$OOOO$$##$$    oooooooooooooooo",
"oooooooooooooooo  ..        ++$$$$++        ..  oooooooooooooooo",
"oooooooooooooooo  ..        ++$$$$++        ..  oooooooooooooooo",
"oooooooooooooooo  ..........        ..........  oooooooooooooooo",
"oooooooooooooooo  ..........        ..........  oooooooooooooooo",
"oooooooooooooooo  XX@@..@@@@........XX....@@XX  oooooooooooooooo",
"oooooooooooooooo  XX@@..@@@@........XX....@@XX  oooooooooooooooo",
"oooooooooooooooo  XX@@..@@@@@@......@@..XX@@@@  oooooooooooooooo",
"oooooooooooooooo  XX@@..@@@@@@......@@..XX@@@@  oooooooooooooooo",
"oooooooooooooooo  XX@@..@@@@@@......@@XXXX@@@@  oooooooooooooooo",
"oooooooooooooooo  XX@@..@@@@@@......@@XXXX@@@@  oooooooooooooooo",
"oooooooooooooooo  XX@@..@@@@@@..@@..@@XXXX@@@@  oooooooooooooooo",
"oooooooooooooooo  XX@@..@@@@@@..@@..@@XXXX@@@@  oooooooooooooooo",
"oooooooooooooooo  XX@@..@@@@..@@@@..@@@@XX..XX  oooooooooooooooo",
"oooooooooooooooo  XX@@..@@@@..@@@@..@@@@XX..XX  oooooooooooooooo",
"oo                XX@@@@@@@@..@@@@..@@@@@@..XX          oooooooo",
"oo                XX@@@@@@@@..@@@@..@@@@@@..XX          oooooooo",
"oooooo    ..@@@@@@XX@@@@@@@@..@@@@..@@@@XX..XX  XX@@@@@@        ",
"oooooo    ..@@@@@@XX@@@@@@@@..@@@@..@@@@XX..XX  XX@@@@@@        ",
"oooooooooo    XX  XX@@@@@@@@..@@@@..@@XXXX..XX  ........    oooo",
"oooooooooo    XX  XX@@@@@@@@..@@@@..@@XXXX..XX  ........    oooo",
"oooooooooooooo    XX@@@@@@..@@..@@..@@XXXX..XX@@    ..  oooooooo",
"oooooooooooooo    XX@@@@@@..@@..@@..@@XXXX..XX@@    ..  oooooooo",
"oooooooooooo  XX@@@@@@......@@..@@..@@XXXX@@  ..@@@@      oooooo",
"oooooooooooo  XX@@@@@@......@@..@@..@@XXXX@@  ..@@@@      oooooo",
"oooooo      XX@@@@XX........@@..@@..XXXXXX@@@@  ..XX......    oo",
"oooooo      XX@@@@XX........@@..@@..XXXXXX@@@@  ..XX......    oo",
"oooo    XX@@@@@@XX      ......@@XX..  ..XX@@@@@@                ",
"oooo    XX@@@@@@XX      ......@@XX..  ..XX@@@@@@                ",
"    ....XX....    oooo  ..@@@@@@XX  oo  ..XX@@@@  oooooooooooooo",
"    ....XX....    oooo  ..@@@@@@XX  oo  ..XX@@@@  oooooooooooooo",
"              oooooooo  ..@@@@@@..  oooo  ..XXXXXX  oooooooooooo",
"              oooooooo  ..@@@@@@..  oooo  ..XXXXXX  oooooooooooo",
"oooooooooooooooooooooo  ..@@@@..  oooooooo  ..XXXXXX  oooooooooo",
"oooooooooooooooooooooo  ..@@@@..  oooooooo  ..XXXXXX  oooooooooo",
"oooooooooooooooooooooo  @@XXXX  oooooooooooo  ....XXXX  oooooooo",
"oooooooooooooooooooooo  @@XXXX  oooooooooooo  ....XXXX  oooooooo",
"oooooooooooooooooooooo  @@..  oooooooooooooooo        ..  oooooo",
"oooooooooooooooooooooo  @@..  oooooooooooooooo        ..  oooooo",
"oooooooooooooooooooo  ....  oooooooooooooooooooooooooo      oooo",
"oooooooooooooooooooo  ....  oooooooooooooooooooooooooo      oooo",
"oooooooooooooooooo  ..    oooooooooooooooooooooooooooooooooooooo",
"oooooooooooooooooo  ..    oooooooooooooooooooooooooooooooooooooo",
"oooooooooooooooooo    oooooooooooooooooooooooooooooooooooooooooo",
"oooooooooooooooooo    oooooooooooooooooooooooooooooooooooooooooo"
};
